# xmcd
#
# Track frame offsets: 
#        150
#        13713
#        26008
#        42236
#        54560
#        69961
#        85038
#        99046
#        109611
#        120507
#        133204
#        144033
#        156356
#        167311
#        181755
#        191827
#        206653
#        220341
#        234276
#        244240
#        257388
#
# Disc length: 3613 seconds
#
# Revision: 0
# Processed by: cddbd v1.5.2PL0 Copyright (c) Steve Scherf et al.
# Submitted via: ExactAudioCopy v0.95b3
#
DISCID=0e0e1b15
DTITLE=Howlin' Wolf  - Chess Records Outtakes,Demos and Alternate Takes 
DTITLE=1948 - 1968 - Disc 1
DYEAR=1900
DGENRE=
TTITLE0=Bluebird #1
TTITLE1=Dorothy Mae #1
TTITLE2=Sweet Woman
TTITLE3=Saddle My Pony
TTITLE4=Worried All The Time
TTITLE5=Mama Died And Left Me
TTITLE6=I'm Not Joking
TTITLE7=Highway My Friend
TTITLE8=Hold Your Money
TTITLE9=Streamline Woman
TTITLE10=California Blues
TTITLE11=Stay Here Till My Baby Comes Back
TTITLE12=Crazy About You Baby
TTITLE13=C.V.Wine Blues
TTITLE14=Look A Here Baby
TTITLE15=Decoration Day
TTITLE16=Well That's All Right
TTITLE17=My Baby Walked Off
TTITLE18=Smile At Me
TTITLE19=Bluebird #2
TTITLE20=Everybody's In The Mood
EXTD=
EXTT0=
EXTT1=
EXTT2=
EXTT3=
EXTT4=
EXTT5=
EXTT6=
EXTT7=
EXTT8=
EXTT9=
EXTT10=
EXTT11=
EXTT12=
EXTT13=
EXTT14=
EXTT15=
EXTT16=
EXTT17=
EXTT18=
EXTT19=
EXTT20=
PLAYORDER=
